<?xml version="1.0" encoding="UTF-8" standalone="no"?>
<svg
   xmlns:dc="http://purl.org/dc/elements/1.1/"
   xmlns:cc="http://creativecommons.org/ns#"
   xmlns:rdf="http://www.w3.org/1999/02/22-rdf-syntax-ns#"
   xmlns:svg="http://www.w3.org/2000/svg"
   xmlns="http://www.w3.org/2000/svg"
   xmlns:sodipodi="http://sodipodi.sourceforge.net/DTD/sodipodi-0.dtd"
   xmlns:inkscape="http://www.inkscape.org/namespaces/inkscape"
   version="1.1"
   x="0px"
   y="0px"
   viewBox="0 0 300 200"
   enable-background="new 0 0 100 100"
   xml:space="preserve"
   id="svg817"
   sodipodi:docname="ChameraLogo.svg"
   width="300"
   height="200"
   inkscape:version="0.92.4 (5da689c313, 2019-01-14)"
   inkscape:export-filename="C:\Users\SL\source\repos\Chamera\Chamera.Common\Images\Logo\ChameraLogoSmall.png"
   inkscape:export-xdpi="200"
   inkscape:export-ydpi="200"><metadata
   id="metadata823"><rdf:RDF><cc:Work
       rdf:about=""><dc:format>image/svg+xml</dc:format><dc:type
         rdf:resource="http://purl.org/dc/dcmitype/StillImage" /><dc:title></dc:title></cc:Work></rdf:RDF></metadata><defs
   id="defs821"><marker
     inkscape:stockid="DotL"
     orient="auto"
     refY="0"
     refX="0"
     id="marker1795"
     style="overflow:visible"
     inkscape:isstock="true"><path
       id="path1793"
       d="m -2.5,-1 c 0,2.76 -2.24,5 -5,5 -2.76,0 -5,-2.24 -5,-5 0,-2.76 2.24,-5 5,-5 2.76,0 5,2.24 5,5 z"
       style="fill:#f4ed23;fill-opacity:1;fill-rule:evenodd;stroke:#000000;stroke-width:1.00000003pt;stroke-opacity:1"
       transform="matrix(0.8,0,0,0.8,5.92,0.8)"
       inkscape:connector-curvature="0" /></marker><marker
     inkscape:stockid="DotL"
     orient="auto"
     refY="0"
     refX="0"
     id="marker1625"
     style="overflow:visible"
     inkscape:isstock="true"><path
       id="path1623"
       d="m -2.5,-1 c 0,2.76 -2.24,5 -5,5 -2.76,0 -5,-2.24 -5,-5 0,-2.76 2.24,-5 5,-5 2.76,0 5,2.24 5,5 z"
       style="fill:#f4ed23;fill-opacity:1;fill-rule:evenodd;stroke:#000000;stroke-width:1.00000003pt;stroke-opacity:1"
       transform="matrix(0.8,0,0,0.8,5.92,0.8)"
       inkscape:connector-curvature="0" /></marker><marker
     inkscape:stockid="DotL"
     orient="auto"
     refY="0"
     refX="0"
     id="DotL"
     style="overflow:visible"
     inkscape:isstock="true"><path
       id="path886"
       d="m -2.5,-1 c 0,2.76 -2.24,5 -5,5 -2.76,0 -5,-2.24 -5,-5 0,-2.76 2.24,-5 5,-5 2.76,0 5,2.24 5,5 z"
       style="fill:#f4ed23;fill-opacity:1;fill-rule:evenodd;stroke:#000000;stroke-width:1.00000003pt;stroke-opacity:1"
       transform="matrix(0.8,0,0,0.8,5.92,0.8)"
       inkscape:connector-curvature="0" /></marker><marker
     inkscape:stockid="Arrow2Lstart"
     orient="auto"
     refY="0"
     refX="0"
     id="marker1103"
     style="overflow:visible"
     inkscape:isstock="true"><path
       id="path1101"
       style="fill:#f4ed23;fill-opacity:1;fill-rule:evenodd;stroke:#000000;stroke-width:0.625;stroke-linejoin:round;stroke-opacity:1"
       d="M 8.7185878,4.0337352 -2.2072895,0.01601326 8.7185884,-4.0017078 c -1.7454984,2.3720609 -1.7354408,5.6174519 -6e-7,8.035443 z"
       transform="matrix(1.1,0,0,1.1,1.1,0)"
       inkscape:connector-curvature="0" /></marker><marker
     inkscape:stockid="Arrow2Lstart"
     orient="auto"
     refY="0"
     refX="0"
     id="Arrow2Lstart"
     style="overflow:visible"
     inkscape:isstock="true"><path
       id="path843"
       style="fill:#f4ed23;fill-opacity:1;fill-rule:evenodd;stroke:#000000;stroke-width:0.625;stroke-linejoin:round;stroke-opacity:1"
       d="M 8.7185878,4.0337352 -2.2072895,0.01601326 8.7185884,-4.0017078 c -1.7454984,2.3720609 -1.7354408,5.6174519 -6e-7,8.035443 z"
       transform="matrix(1.1,0,0,1.1,1.1,0)"
       inkscape:connector-curvature="0" /></marker></defs><sodipodi:namedview
   pagecolor="#ffffff"
   bordercolor="#666666"
   borderopacity="1"
   objecttolerance="10"
   gridtolerance="10"
   guidetolerance="10"
   inkscape:pageopacity="0"
   inkscape:pageshadow="2"
   inkscape:window-width="1920"
   inkscape:window-height="1017"
   id="namedview819"
   showgrid="false"
   inkscape:zoom="1.676"
   inkscape:cx="200.77189"
   inkscape:cy="80.473321"
   inkscape:window-x="-8"
   inkscape:window-y="-8"
   inkscape:window-maximized="1"
   inkscape:current-layer="svg817" />
<text
   xml:space="preserve"
   style="font-style:normal;font-weight:normal;font-size:355.19824219px;line-height:1.25;font-family:sans-serif;letter-spacing:0px;word-spacing:0px;fill:#000000;fill-opacity:1;stroke:none;stroke-width:2.66398692"
   x="34.002792"
   y="155.60062"
   id="text852"><tspan
     sodipodi:role="line"
     id="tspan850"
     x="34.002792"
     y="469.8678"
     style="font-style:normal;font-variant:normal;font-weight:normal;font-stretch:normal;font-size:35.51982498px;font-family:Aileron;-inkscape-font-specification:Aileron;stroke-width:2.66398692" /><tspan
     sodipodi:role="line"
     x="34.002792"
     y="913.8656"
     style="font-style:normal;font-variant:normal;font-weight:normal;font-stretch:normal;font-size:35.51982498px;font-family:Aileron;-inkscape-font-specification:Aileron;stroke-width:2.66398692"
     id="tspan872" /></text>




<path
   style="fill:#ffffff;fill-opacity:1;stroke:none;stroke-width:1.99757195;stroke-linecap:butt;stroke-linejoin:miter;stroke-miterlimit:4;stroke-dasharray:none;stroke-opacity:1"
   d="M 0,199.57927 V 0.55688 H 299.16468 V 200 Z"
   id="path858"
   inkscape:connector-curvature="0"
   sodipodi:nodetypes="ccccc" /><path
   inkscape:connector-curvature="0"
   d="m 236.23403,74.90569 c 2.23382,-12.76357 -0.16155,-25.75292 -6.89624,-36.97421 -7.41199,-12.35009 -19.18934,-21.07379 -33.16486,-24.56233 -4.2894,-1.07177 -8.69045,-1.61595 -13.08439,-1.61595 -19.98306,0 -38.14816,11.00505 -47.48499,28.4002 -4.46523,-3.05128 -9.74319,-4.69335 -15.25878,-4.69335 -7.34304,0 -14.21793,2.88492 -19.36043,8.12485 -4.296514,4.37732 -6.977075,10.13055 -7.618702,16.18321 -21.539575,1.29038 -39.070187,19.20121 -39.590614,41.03307 -0.268526,11.24506 3.859253,21.92456 11.620534,30.0613 7.76366,8.14151 18.229268,12.77071 29.479087,13.03924 l 134.377585,0.012 c 19.22023,0 34.85448,-15.63426 34.85448,-34.85448 0,-16.86285 -11.72985,-30.9073 -27.87268,-34.15343 z"
   id="path1430-4"
   style="fill:#727678;fill-opacity:1;stroke-width:2.3763876"
   sodipodi:nodetypes="cccscsccccccscc" /><path
   inkscape:connector-curvature="0"
   d="m 220.2446,80.42585 c 2.2338,-12.76358 -0.16155,-25.75291 -6.89629,-36.97422 -7.41194,-12.35007 -19.18932,-21.0738 -33.16486,-24.56234 -4.28937,-1.07174 -8.69044,-1.61594 -13.08438,-1.61594 -19.98305,0 -38.14815,11.00505 -47.48498,28.40022 -4.46523,-3.05128 -9.74319,-4.69338 -15.25878,-4.69338 -7.343042,0 -14.21793,2.88495 -19.360433,8.12488 -4.296508,4.37729 -6.977071,10.13053 -7.618697,16.18319 -21.539576,1.29038 -39.070187,19.20121 -39.590612,41.03309 -0.268528,11.24506 3.85925,21.92454 11.620533,30.0613 7.763659,8.14149 18.229267,12.7707 29.479085,13.03923 l 134.377584,0.012 c 19.22022,0 34.85446,-15.63425 34.85446,-34.85448 0,-16.86284 -11.72981,-30.90728 -27.87263,-34.15344 z"
   id="path1430"
   style="fill:#000000;fill-opacity:1;stroke-width:2.3763876"
   sodipodi:nodetypes="cccscsccccccscc" />
<text
   xml:space="preserve"
   style="font-style:normal;font-variant:normal;font-weight:normal;font-stretch:normal;font-size:411.06219482px;line-height:1.25;font-family:Aileron;-inkscape-font-specification:Aileron;letter-spacing:0px;word-spacing:0px;fill:#000000;fill-opacity:1;stroke:none;stroke-width:3.0829668"
   x="42.762691"
   y="188.69507"
   id="text837"><tspan
     sodipodi:role="line"
     id="tspan835"
     x="42.762691"
     y="188.69507"
     style="font-style:normal;font-variant:normal;font-weight:bold;font-stretch:normal;font-size:41.10622025px;font-family:Orbitron;-inkscape-font-specification:Orbitron;stroke-width:3.0829668">Chamera</tspan></text>

<text
   xml:space="preserve"
   style="font-style:normal;font-variant:normal;font-weight:normal;font-stretch:normal;font-size:411.06219482px;line-height:1.25;font-family:Metrosant;-inkscape-font-specification:Metrosant;letter-spacing:0px;word-spacing:0px;fill:#ffffff;fill-opacity:1;stroke:none;stroke-width:3.0829668"
   x="100.27577"
   y="135.95428"
   id="text856"><tspan
     sodipodi:role="line"
     id="tspan854"
     x="100.27577"
     y="135.95428"
     style="font-size:102.76554871px;fill:#ffffff;fill-opacity:1;stroke-width:3.0829668">C</tspan></text>

<flowRoot
   xml:space="preserve"
   id="flowRoot891"
   style="font-style:normal;font-variant:normal;font-weight:normal;font-stretch:normal;font-size:133.33332825px;line-height:1.25;font-family:Aileron;-inkscape-font-specification:Aileron;letter-spacing:0px;word-spacing:0px;fill:#000000;fill-opacity:1;stroke:none"
   transform="translate(0,-100)"><flowRegion
     id="flowRegion893"><rect
       id="rect895"
       width="314.43915"
       height="230.31026"
       x="-110.97852"
       y="148.44868" /></flowRegion><flowPara
     id="flowPara897"></flowPara></flowRoot></svg>