<?xml version="1.0" encoding="UTF-8" standalone="no"?>
<svg
   xmlns:dc="http://purl.org/dc/elements/1.1/"
   xmlns:cc="http://creativecommons.org/ns#"
   xmlns:rdf="http://www.w3.org/1999/02/22-rdf-syntax-ns#"
   xmlns:svg="http://www.w3.org/2000/svg"
   xmlns="http://www.w3.org/2000/svg"
   xmlns:sodipodi="http://sodipodi.sourceforge.net/DTD/sodipodi-0.dtd"
   xmlns:inkscape="http://www.inkscape.org/namespaces/inkscape"
   height="200"
   width="700"
   id="svg817"
   xml:space="preserve"
   enable-background="new 0 0 100 100"
   viewBox="0 0 700 200"
   y="0px"
   x="0px"
   version="1.1"
   sodipodi:docname="ChameraLogoLongPlain.svg"
   inkscape:version="0.92.4 (5da689c313, 2019-01-14)"><sodipodi:namedview
   pagecolor="#ffffff"
   bordercolor="#666666"
   borderopacity="1"
   objecttolerance="10"
   gridtolerance="10"
   guidetolerance="10"
   inkscape:pageopacity="0"
   inkscape:pageshadow="2"
   inkscape:window-width="1920"
   inkscape:window-height="1017"
   id="namedview29"
   showgrid="false"
   inkscape:zoom="2"
   inkscape:cx="89.117483"
   inkscape:cy="50.852201"
   inkscape:window-x="-8"
   inkscape:window-y="-8"
   inkscape:window-maximized="1"
   inkscape:current-layer="svg817" /><metadata
   id="metadata823"><rdf:RDF><cc:Work
       rdf:about=""><dc:format>image/svg+xml</dc:format><dc:type
         rdf:resource="http://purl.org/dc/dcmitype/StillImage" /><dc:title /></cc:Work></rdf:RDF></metadata><defs
   id="defs821"><marker
     style="overflow:visible"
     id="marker1795"
     refX="0"
     refY="0"
     orient="auto"><path
       transform="matrix(0.8,0,0,0.8,5.92,0.8)"
       style="fill:#f4ed23;fill-opacity:1;fill-rule:evenodd;stroke:#000000;stroke-width:1.00000003pt;stroke-opacity:1"
       d="m -2.5,-1 c 0,2.76 -2.24,5 -5,5 -2.76,0 -5,-2.24 -5,-5 0,-2.76 2.24,-5 5,-5 2.76,0 5,2.24 5,5 z"
       id="path1793" /></marker><marker
     style="overflow:visible"
     id="marker1625"
     refX="0"
     refY="0"
     orient="auto"><path
       transform="matrix(0.8,0,0,0.8,5.92,0.8)"
       style="fill:#f4ed23;fill-opacity:1;fill-rule:evenodd;stroke:#000000;stroke-width:1.00000003pt;stroke-opacity:1"
       d="m -2.5,-1 c 0,2.76 -2.24,5 -5,5 -2.76,0 -5,-2.24 -5,-5 0,-2.76 2.24,-5 5,-5 2.76,0 5,2.24 5,5 z"
       id="path1623" /></marker><marker
     style="overflow:visible"
     id="DotL"
     refX="0"
     refY="0"
     orient="auto"><path
       transform="matrix(0.8,0,0,0.8,5.92,0.8)"
       style="fill:#f4ed23;fill-opacity:1;fill-rule:evenodd;stroke:#000000;stroke-width:1.00000003pt;stroke-opacity:1"
       d="m -2.5,-1 c 0,2.76 -2.24,5 -5,5 -2.76,0 -5,-2.24 -5,-5 0,-2.76 2.24,-5 5,-5 2.76,0 5,2.24 5,5 z"
       id="path886" /></marker><marker
     style="overflow:visible"
     id="marker1103"
     refX="0"
     refY="0"
     orient="auto"><path
       transform="matrix(1.1,0,0,1.1,1.1,0)"
       d="M 8.7185878,4.0337352 -2.2072895,0.01601326 8.7185884,-4.0017078 c -1.7454984,2.3720609 -1.7354408,5.6174519 -6e-7,8.035443 z"
       style="fill:#f4ed23;fill-opacity:1;fill-rule:evenodd;stroke:#000000;stroke-width:0.625;stroke-linejoin:round;stroke-opacity:1"
       id="path1101" /></marker><marker
     style="overflow:visible"
     id="Arrow2Lstart"
     refX="0"
     refY="0"
     orient="auto"><path
       transform="matrix(1.1,0,0,1.1,1.1,0)"
       d="M 8.7185878,4.0337352 -2.2072895,0.01601326 8.7185884,-4.0017078 c -1.7454984,2.3720609 -1.7354408,5.6174519 -6e-7,8.035443 z"
       style="fill:#f4ed23;fill-opacity:1;fill-rule:evenodd;stroke:#000000;stroke-width:0.625;stroke-linejoin:round;stroke-opacity:1"
       id="path843" /></marker></defs>

<flowRoot
   transform="translate(0,-103.73493)"
   style="font-style:normal;font-variant:normal;font-weight:normal;font-stretch:normal;font-size:133.33332825px;line-height:1.25;font-family:Aileron;-inkscape-font-specification:Aileron;letter-spacing:0px;word-spacing:0px;fill:#000000;fill-opacity:1;stroke:none"
   id="flowRoot891"
   xml:space="preserve"><flowRegion
     id="flowRegion893"></flowRegion><flowPara
     id="flowPara897" /></flowRoot><path
   inkscape:connector-curvature="0"
   d="m 229.46079,93.47181 c 2.23382,-12.763568 -0.16155,-25.752918 -6.89624,-36.974208 -7.41199,-12.35009 -19.18934,-21.07379 -33.16486,-24.56233 -4.2894,-1.07177 -8.69045,-1.61595 -13.08439,-1.61595 -19.98306,0 -38.14816,11.00505 -47.48499,28.4002 -4.46523,-3.05128 -9.74319,-4.69335 -15.25879,-4.69335 -7.34304,0 -14.217927,2.88492 -19.360427,8.12485 -4.29651,4.37732 -6.97707,10.13055 -7.6187,16.18321 -21.53958,1.29038 -39.07019,19.201208 -39.59062,41.033068 -0.26852,11.24506 3.85926,21.92456 11.62054,30.0613 7.76366,8.14151 18.22927,12.77071 29.47909,13.03924 l 134.377587,0.012 c 19.22023,0 34.85448,-15.63426 34.85448,-34.85448 0,-16.86285 -11.72985,-30.9073 -27.87268,-34.15343 z"
   id="path1430-4"
   style="fill:#727678;fill-opacity:1;stroke-width:2.3763876"
   sodipodi:nodetypes="cccscsccccccscc" /><path
   inkscape:connector-curvature="0"
   d="m 213.47136,98.99197 c 2.2338,-12.763578 -0.16155,-25.752908 -6.89629,-36.974218 -7.41194,-12.35007 -19.18932,-21.0738 -33.16486,-24.56234 -4.28937,-1.07174 -8.69044,-1.61594 -13.08438,-1.61594 -19.98305,0 -38.14815,11.00505 -47.48499,28.40022 -4.46523,-3.05128 -9.74319,-4.69338 -15.258777,-4.69338 -7.34304,0 -14.21793,2.88495 -19.36043,8.12488 -4.29651,4.37729 -6.97707,10.13053 -7.6187,16.18319 -21.53958,1.29038 -39.07019,19.201208 -39.59061,41.033088 -0.26853,11.24506 3.85925,21.92454 11.62053,30.0613 7.76366,8.14149 18.22927,12.7707 29.47909,13.03923 L 206.48953,168 c 19.22022,0 34.85446,-15.63425 34.85446,-34.85448 0,-16.86284 -11.72981,-30.90728 -27.87263,-34.15344 z"
   id="path1430"
   style="fill:#000000;fill-opacity:1;stroke-width:2.3763876"
   sodipodi:nodetypes="cccscsccccccscc" /><text
   xml:space="preserve"
   style="font-style:normal;font-variant:normal;font-weight:normal;font-stretch:normal;font-size:411.06219482px;line-height:1.25;font-family:Metrosant;-inkscape-font-specification:Metrosant;letter-spacing:0px;word-spacing:0px;fill:#ffffff;fill-opacity:1;stroke:none;stroke-width:3.0829668"
   x="93.50251"
   y="154.5204"
   id="text856"><tspan
     sodipodi:role="line"
     id="tspan854"
     x="93.50251"
     y="154.5204"
     style="font-size:102.76554871px;fill:#ffffff;fill-opacity:1;stroke-width:3.0829668">C</tspan></text>


<text
   xml:space="preserve"
   style="font-style:normal;font-variant:normal;font-weight:normal;font-stretch:normal;font-size:411.06219482px;line-height:1.25;font-family:Aileron;-inkscape-font-specification:Aileron;letter-spacing:0px;word-spacing:0px;fill:#000000;fill-opacity:1;stroke:none;stroke-width:3.0829668"
   x="271.74844"
   y="163"
   id="text837"><tspan
     sodipodi:role="line"
     id="tspan835"
     x="271.74844"
     y="163"
     style="font-style:normal;font-variant:normal;font-weight:bold;font-stretch:normal;font-size:80px;font-family:Orbitron;-inkscape-font-specification:Orbitron;stroke-width:3.0829668">Chamera</tspan></text>


</svg>