<?xml version="1.0" encoding="UTF-8" standalone="no"?>
<svg
   xmlns:dc="http://purl.org/dc/elements/1.1/"
   xmlns:cc="http://creativecommons.org/ns#"
   xmlns:rdf="http://www.w3.org/1999/02/22-rdf-syntax-ns#"
   xmlns:svg="http://www.w3.org/2000/svg"
   xmlns="http://www.w3.org/2000/svg"
   xmlns:sodipodi="http://sodipodi.sourceforge.net/DTD/sodipodi-0.dtd"
   xmlns:inkscape="http://www.inkscape.org/namespaces/inkscape"
   version="1.1"
   x="0px"
   y="0px"
   viewBox="0 0 125 100"
   enable-background="new 0 0 100 100"
   xml:space="preserve"
   id="svg817"
   sodipodi:docname="ChameraLogo.svg"
   width="125"
   height="100"
   inkscape:version="0.92.4 (5da689c313, 2019-01-14)"><metadata
   id="metadata823"><rdf:RDF><cc:Work
       rdf:about=""><dc:format>image/svg+xml</dc:format><dc:type
         rdf:resource="http://purl.org/dc/dcmitype/StillImage" /><dc:title /></cc:Work></rdf:RDF></metadata><defs
   id="defs821"><marker
     inkscape:stockid="DiamondLend"
     orient="auto"
     refY="0.0"
     refX="0.0"
     id="DiamondLend"
     style="overflow:visible"
     inkscape:isstock="true"><path
       id="path988"
       d="M 0,-7.0710768 L -7.0710894,0 L 0,7.0710589 L 7.0710462,0 L 0,-7.0710768 z "
       style="fill-rule:evenodd;stroke:#000000;stroke-width:1pt;stroke-opacity:1;fill:#000000;fill-opacity:1"
       transform="scale(0.8) translate(-7,0)" /></marker><marker
     inkscape:stockid="Tail"
     orient="auto"
     refY="0.0"
     refX="0.0"
     id="Tail"
     style="overflow:visible"
     inkscape:isstock="true"><g
       id="g939"
       transform="scale(-1.2)"
       style="stroke:#000000;stroke-opacity:1;fill:#000000;fill-opacity:1"><path
         id="path927"
         d="M -3.8048674,-3.9585227 L 0.54352094,0"
         style="fill:#000000;fill-rule:evenodd;stroke:#000000;stroke-width:0.8;stroke-linecap:round;stroke-opacity:1;fill-opacity:1" /><path
         id="path929"
         d="M -1.2866832,-3.9585227 L 3.0617053,0"
         style="fill:#000000;fill-rule:evenodd;stroke:#000000;stroke-width:0.8;stroke-linecap:round;stroke-opacity:1;fill-opacity:1" /><path
         id="path931"
         d="M 1.3053582,-3.9585227 L 5.6537466,0"
         style="fill:#000000;fill-rule:evenodd;stroke:#000000;stroke-width:0.8;stroke-linecap:round;stroke-opacity:1;fill-opacity:1" /><path
         id="path933"
         d="M -3.8048674,4.1775838 L 0.54352094,0.21974226"
         style="fill:#000000;fill-rule:evenodd;stroke:#000000;stroke-width:0.8;stroke-linecap:round;stroke-opacity:1;fill-opacity:1" /><path
         id="path935"
         d="M -1.2866832,4.1775838 L 3.0617053,0.21974226"
         style="fill:#000000;fill-rule:evenodd;stroke:#000000;stroke-width:0.8;stroke-linecap:round;stroke-opacity:1;fill-opacity:1" /><path
         id="path937"
         d="M 1.3053582,4.1775838 L 5.6537466,0.21974226"
         style="fill:#000000;fill-rule:evenodd;stroke:#000000;stroke-width:0.8;stroke-linecap:round;stroke-opacity:1;fill-opacity:1" /></g></marker><marker
     inkscape:stockid="Arrow1Lend"
     orient="auto"
     refY="0.0"
     refX="0.0"
     id="Arrow1Lend"
     style="overflow:visible;"
     inkscape:isstock="true"><path
       id="path894"
       d="M 0.0,0.0 L 5.0,-5.0 L -12.5,0.0 L 5.0,5.0 L 0.0,0.0 z "
       style="fill-rule:evenodd;stroke:#000000;stroke-width:1pt;stroke-opacity:1;fill:#000000;fill-opacity:1"
       transform="scale(0.8) rotate(180) translate(12.5,0)" /></marker><marker
     inkscape:stockid="DotL"
     orient="auto"
     refY="0.0"
     refX="0.0"
     id="marker1795"
     style="overflow:visible"
     inkscape:isstock="true"><path
       id="path1793"
       d="M -2.5,-1.0 C -2.5,1.7600000 -4.7400000,4.0 -7.5,4.0 C -10.260000,4.0 -12.5,1.7600000 -12.5,-1.0 C -12.5,-3.7600000 -10.260000,-6.0 -7.5,-6.0 C -4.7400000,-6.0 -2.5,-3.7600000 -2.5,-1.0 z "
       style="fill-rule:evenodd;stroke:#000000;stroke-width:1pt;stroke-opacity:1;fill:#f4ed23;fill-opacity:1"
       transform="scale(0.8) translate(7.4, 1)" /></marker><marker
     inkscape:stockid="DotL"
     orient="auto"
     refY="0.0"
     refX="0.0"
     id="marker1625"
     style="overflow:visible"
     inkscape:isstock="true"><path
       id="path1623"
       d="M -2.5,-1.0 C -2.5,1.7600000 -4.7400000,4.0 -7.5,4.0 C -10.260000,4.0 -12.5,1.7600000 -12.5,-1.0 C -12.5,-3.7600000 -10.260000,-6.0 -7.5,-6.0 C -4.7400000,-6.0 -2.5,-3.7600000 -2.5,-1.0 z "
       style="fill-rule:evenodd;stroke:#000000;stroke-width:1pt;stroke-opacity:1;fill:#f4ed23;fill-opacity:1"
       transform="scale(0.8) translate(7.4, 1)" /></marker><marker
     inkscape:stockid="DotL"
     orient="auto"
     refY="0.0"
     refX="0.0"
     id="DotL"
     style="overflow:visible"
     inkscape:isstock="true"><path
       id="path886"
       d="M -2.5,-1.0 C -2.5,1.7600000 -4.7400000,4.0 -7.5,4.0 C -10.260000,4.0 -12.5,1.7600000 -12.5,-1.0 C -12.5,-3.7600000 -10.260000,-6.0 -7.5,-6.0 C -4.7400000,-6.0 -2.5,-3.7600000 -2.5,-1.0 z "
       style="fill-rule:evenodd;stroke:#000000;stroke-width:1pt;stroke-opacity:1;fill:#f4ed23;fill-opacity:1"
       transform="scale(0.8) translate(7.4, 1)" /></marker><marker
     inkscape:stockid="Arrow2Lstart"
     orient="auto"
     refY="0.0"
     refX="0.0"
     id="marker1103"
     style="overflow:visible"
     inkscape:isstock="true"><path
       id="path1101"
       style="fill-rule:evenodd;stroke-width:0.625;stroke-linejoin:round;stroke:#000000;stroke-opacity:1;fill:#f4ed23;fill-opacity:1"
       d="M 8.7185878,4.0337352 L -2.2072895,0.016013256 L 8.7185884,-4.0017078 C 6.9730900,-1.6296469 6.9831476,1.6157441 8.7185878,4.0337352 z "
       transform="scale(1.1) translate(1,0)" /></marker><marker
     inkscape:stockid="Arrow2Lstart"
     orient="auto"
     refY="0.0"
     refX="0.0"
     id="Arrow2Lstart"
     style="overflow:visible"
     inkscape:isstock="true"><path
       id="path843"
       style="fill-rule:evenodd;stroke-width:0.625;stroke-linejoin:round;stroke:#000000;stroke-opacity:1;fill:#f4ed23;fill-opacity:1"
       d="M 8.7185878,4.0337352 L -2.2072895,0.016013256 L 8.7185884,-4.0017078 C 6.9730900,-1.6296469 6.9831476,1.6157441 8.7185878,4.0337352 z "
       transform="scale(1.1) translate(1,0)" /></marker></defs><sodipodi:namedview
   pagecolor="#ffffff"
   bordercolor="#666666"
   borderopacity="1"
   objecttolerance="10"
   gridtolerance="10"
   guidetolerance="10"
   inkscape:pageopacity="0"
   inkscape:pageshadow="2"
   inkscape:window-width="1920"
   inkscape:window-height="1017"
   id="namedview819"
   showgrid="false"
   inkscape:zoom="4.7404439"
   inkscape:cx="80.189467"
   inkscape:cy="58.650208"
   inkscape:window-x="1912"
   inkscape:window-y="-8"
   inkscape:window-maximized="1"
   inkscape:current-layer="svg817" />
<text
   xml:space="preserve"
   style="font-style:normal;font-weight:normal;font-size:355.19824219px;line-height:1.25;font-family:sans-serif;letter-spacing:0px;word-spacing:0px;fill:#000000;fill-opacity:1;stroke:none;stroke-width:2.66398692"
   x="34.002792"
   y="55.600624"
   id="text852"><tspan
     sodipodi:role="line"
     id="tspan850"
     x="34.002792"
     y="369.86783"
     style="font-style:normal;font-variant:normal;font-weight:normal;font-stretch:normal;font-size:35.51982498px;font-family:Aileron;-inkscape-font-specification:Aileron;stroke-width:2.66398692" /><tspan
     sodipodi:role="line"
     x="34.002792"
     y="813.8656"
     style="font-style:normal;font-variant:normal;font-weight:normal;font-stretch:normal;font-size:35.51982498px;font-family:Aileron;-inkscape-font-specification:Aileron;stroke-width:2.66398692"
     id="tspan872" /></text>


<circle
   style="fill:#408ad2;fill-opacity:1;stroke:none;stroke-width:3.19580507;stroke-linecap:round;stroke-linejoin:round;stroke-miterlimit:4;stroke-dasharray:none;stroke-dashoffset:0;stroke-opacity:1"
   id="path1743"
   cx="64.77327"
   cy="50"
   r="50" /><path
   inkscape:connector-curvature="0"
   d="m 86.566319,28.054049 c 0.635122,-3.628983 -0.04595,-7.322155 -1.960773,-10.512634 -2.107391,-3.511419 -5.455975,-5.991776 -9.429548,-6.983649 -1.21957,-0.304723 -2.470891,-0.459451 -3.720198,-0.459451 -5.681646,0 -10.846411,3.128994 -13.501089,8.074844 -1.26957,-0.867551 -2.770217,-1.334434 -4.33843,-1.334434 -2.087797,0 -4.042488,0.820255 -5.504623,2.31009 -1.221599,1.244571 -1.983745,2.88035 -2.166175,4.601263 -6.124205,0.366885 -11.108568,5.459354 -11.256538,11.666667 -0.07634,3.197234 1.097276,6.233663 3.303989,8.547131 2.207391,2.314821 5.183009,3.631011 8.381595,3.707361 l 38.206693,0.0034 c 5.464767,0 9.909949,-4.445185 9.909949,-9.909944 0,-4.794502 -3.33507,-8.787667 -7.924852,-9.710623 z M 84.581222,45.648304 H 46.658307 l -0.237156,-0.0034 c -2.656031,-0.06281 -5.128281,-1.156706 -6.961353,-3.079641 -1.833073,-1.922935 -2.808052,-4.443832 -2.744541,-7.099862 0.127696,-5.353951 4.585723,-9.709948 9.938321,-9.709948 l 0.241212,0.0027 c 0.27567,0.01281 0.546611,-0.101353 0.742552,-0.297968 0.195942,-0.197292 0.302698,-0.466206 0.294589,-0.744579 -0.04458,-1.537809 0.547962,-3.049266 1.625645,-4.147217 1.078358,-1.097952 2.519545,-1.703346 4.05803,-1.703346 1.49862,0 2.912781,0.577691 3.982354,1.627671 0.239184,0.234456 0.576341,0.337155 0.905388,0.270941 0.327697,-0.06418 0.603367,-0.286481 0.735122,-0.593232 2.104013,-4.887742 6.89919,-8.046466 12.216655,-8.046466 1.083769,0 2.170228,0.134464 3.228992,0.398642 3.447907,0.861469 6.353254,3.013455 8.182273,6.060692 1.82902,3.047238 2.361441,6.624197 1.500646,10.072103 -0.07163,0.287832 -0.01418,0.592556 0.158107,0.834443 0.172293,0.241212 0.441208,0.395263 0.737148,0.420938 4.10465,0.35675 7.20054,3.733036 7.20054,7.853228 0.0013,4.347888 -3.53507,7.884305 -7.881609,7.884305 z"
   id="path1171"
   style="stroke-width:0.67566258" /><text
   xml:space="preserve"
   style="font-style:normal;font-variant:normal;font-weight:normal;font-stretch:normal;font-size:118.35457611px;line-height:1.25;font-family:Aileron;-inkscape-font-specification:Aileron;letter-spacing:0px;word-spacing:0px;fill:#000000;fill-opacity:1;stroke:#408ad2;stroke-width:2.66297817;stroke-miterlimit:4;stroke-dasharray:none;stroke-opacity:1"
   x="37.317165"
   y="83.081909"
   id="text1741"><tspan
     sodipodi:role="line"
     id="tspan1739"
     x="37.317165"
     y="83.081909"
     style="font-style:normal;font-variant:normal;font-weight:normal;font-stretch:normal;font-size:59.17728806px;font-family:Metrosant;-inkscape-font-specification:Metrosant;stroke:#408ad2;stroke-width:2.66297817;stroke-miterlimit:4;stroke-dasharray:none;stroke-opacity:1">C</tspan></text>
</svg>