<?xml version="1.0" encoding="UTF-8" standalone="no"?>
<svg
   xmlns:dc="http://purl.org/dc/elements/1.1/"
   xmlns:cc="http://creativecommons.org/ns#"
   xmlns:rdf="http://www.w3.org/1999/02/22-rdf-syntax-ns#"
   xmlns:svg="http://www.w3.org/2000/svg"
   xmlns="http://www.w3.org/2000/svg"
   xmlns:sodipodi="http://sodipodi.sourceforge.net/DTD/sodipodi-0.dtd"
   xmlns:inkscape="http://www.inkscape.org/namespaces/inkscape"
   version="1.1"
   x="0px"
   y="0px"
   viewBox="0 0 150 100"
   enable-background="new 0 0 100 100"
   xml:space="preserve"
   id="svg817"
   sodipodi:docname="ChameraLogoSymbolTransparent.svg"
   width="150"
   height="100"
   inkscape:version="0.92.4 (5da689c313, 2019-01-14)"><metadata
   id="metadata823"><rdf:RDF><cc:Work
       rdf:about=""><dc:format>image/svg+xml</dc:format><dc:type
         rdf:resource="http://purl.org/dc/dcmitype/StillImage" /><dc:title></dc:title></cc:Work></rdf:RDF></metadata><defs
   id="defs821"><marker
     inkscape:stockid="DotL"
     orient="auto"
     refY="0"
     refX="0"
     id="marker1795"
     style="overflow:visible"
     inkscape:isstock="true"><path
       id="path1793"
       d="m -2.5,-1 c 0,2.76 -2.24,5 -5,5 -2.76,0 -5,-2.24 -5,-5 0,-2.76 2.24,-5 5,-5 2.76,0 5,2.24 5,5 z"
       style="fill:#f4ed23;fill-opacity:1;fill-rule:evenodd;stroke:#000000;stroke-width:1.00000003pt;stroke-opacity:1"
       transform="matrix(0.8,0,0,0.8,5.92,0.8)"
       inkscape:connector-curvature="0" /></marker><marker
     inkscape:stockid="DotL"
     orient="auto"
     refY="0"
     refX="0"
     id="marker1625"
     style="overflow:visible"
     inkscape:isstock="true"><path
       id="path1623"
       d="m -2.5,-1 c 0,2.76 -2.24,5 -5,5 -2.76,0 -5,-2.24 -5,-5 0,-2.76 2.24,-5 5,-5 2.76,0 5,2.24 5,5 z"
       style="fill:#f4ed23;fill-opacity:1;fill-rule:evenodd;stroke:#000000;stroke-width:1.00000003pt;stroke-opacity:1"
       transform="matrix(0.8,0,0,0.8,5.92,0.8)"
       inkscape:connector-curvature="0" /></marker><marker
     inkscape:stockid="DotL"
     orient="auto"
     refY="0"
     refX="0"
     id="DotL"
     style="overflow:visible"
     inkscape:isstock="true"><path
       id="path886"
       d="m -2.5,-1 c 0,2.76 -2.24,5 -5,5 -2.76,0 -5,-2.24 -5,-5 0,-2.76 2.24,-5 5,-5 2.76,0 5,2.24 5,5 z"
       style="fill:#f4ed23;fill-opacity:1;fill-rule:evenodd;stroke:#000000;stroke-width:1.00000003pt;stroke-opacity:1"
       transform="matrix(0.8,0,0,0.8,5.92,0.8)"
       inkscape:connector-curvature="0" /></marker><marker
     inkscape:stockid="Arrow2Lstart"
     orient="auto"
     refY="0"
     refX="0"
     id="marker1103"
     style="overflow:visible"
     inkscape:isstock="true"><path
       id="path1101"
       style="fill:#f4ed23;fill-opacity:1;fill-rule:evenodd;stroke:#000000;stroke-width:0.625;stroke-linejoin:round;stroke-opacity:1"
       d="M 8.7185878,4.0337352 -2.2072895,0.01601326 8.7185884,-4.0017078 c -1.7454984,2.3720609 -1.7354408,5.6174519 -6e-7,8.035443 z"
       transform="matrix(1.1,0,0,1.1,1.1,0)"
       inkscape:connector-curvature="0" /></marker><marker
     inkscape:stockid="Arrow2Lstart"
     orient="auto"
     refY="0"
     refX="0"
     id="Arrow2Lstart"
     style="overflow:visible"
     inkscape:isstock="true"><path
       id="path843"
       style="fill:#f4ed23;fill-opacity:1;fill-rule:evenodd;stroke:#000000;stroke-width:0.625;stroke-linejoin:round;stroke-opacity:1"
       d="M 8.7185878,4.0337352 -2.2072895,0.01601326 8.7185884,-4.0017078 c -1.7454984,2.3720609 -1.7354408,5.6174519 -6e-7,8.035443 z"
       transform="matrix(1.1,0,0,1.1,1.1,0)"
       inkscape:connector-curvature="0" /></marker></defs><sodipodi:namedview
   pagecolor="#ffffff"
   bordercolor="#666666"
   borderopacity="1"
   objecttolerance="10"
   gridtolerance="10"
   guidetolerance="10"
   inkscape:pageopacity="0"
   inkscape:pageshadow="2"
   inkscape:window-width="1920"
   inkscape:window-height="1017"
   id="namedview819"
   showgrid="false"
   inkscape:zoom="3.352"
   inkscape:cx="88.71366"
   inkscape:cy="55.760828"
   inkscape:window-x="1912"
   inkscape:window-y="-8"
   inkscape:window-maximized="1"
   inkscape:current-layer="svg817" />
<text
   xml:space="preserve"
   style="font-style:normal;font-weight:normal;font-size:355.19824219px;line-height:1.25;font-family:sans-serif;letter-spacing:0px;word-spacing:0px;fill:#000000;fill-opacity:1;stroke:none;stroke-width:2.66398692"
   x="34.002792"
   y="55.600624"
   id="text852"><tspan
     sodipodi:role="line"
     id="tspan850"
     x="34.002792"
     y="369.86783"
     style="font-style:normal;font-variant:normal;font-weight:normal;font-stretch:normal;font-size:35.51982498px;font-family:Aileron;-inkscape-font-specification:Aileron;stroke-width:2.66398692" /><tspan
     sodipodi:role="line"
     x="34.002792"
     y="813.8656"
     style="font-style:normal;font-variant:normal;font-weight:normal;font-stretch:normal;font-size:35.51982498px;font-family:Aileron;-inkscape-font-specification:Aileron;stroke-width:2.66398692"
     id="tspan872" /></text>



<path
   inkscape:connector-curvature="0"
   d="m 118.44682,44.139779 c 1.12003,-6.399607 -0.081,-12.912409 -3.45775,-18.538725 -3.71634,-6.192286 -9.62146,-10.566323 -16.628731,-12.315462 -2.150685,-0.537373 -4.357358,-0.810227 -6.560461,-0.810227 -10.019428,0 -19.12734,5.517889 -23.808788,14.239751 -2.23885,-1.529901 -4.885197,-2.353235 -7.650695,-2.353235 -3.681771,0 -7.128813,1.446495 -9.707244,4.073777 -2.154253,2.194765 -3.498276,5.079414 -3.819985,8.114194 -10.799859,0.646991 -19.589639,9.627411 -19.850579,20.573826 -0.134638,5.638232 1.935014,10.992884 5.82649,15.072619 3.892669,4.082118 9.140084,6.403183 14.780699,6.537823 l 67.376394,0.006 c 9.63695,0 17.4759,-7.838952 17.4759,-17.475896 0,-8.454966 -5.8813,-15.496797 -13.97525,-17.124402 z"
   id="path1430-4"
   style="fill:#727678;fill-opacity:1;stroke-width:1.19151139"
   sodipodi:nodetypes="cccscsccccccscc" /><path
   inkscape:connector-curvature="0"
   d="m 110.42978,46.907564 c 1.12002,-6.399608 -0.081,-12.912409 -3.45777,-18.538725 -3.71632,-6.192286 -9.621452,-10.566323 -16.628731,-12.315462 -2.150677,-0.537373 -4.357356,-0.810227 -6.56046,-0.810227 -10.01942,0 -19.127333,5.517889 -23.808781,14.239751 -2.23885,-1.529901 -4.885196,-2.353235 -7.650695,-2.353235 -3.681771,0 -7.128813,1.446495 -9.707244,4.073777 -2.154252,2.194765 -3.498276,5.079414 -3.819985,8.114194 -10.799859,0.646991 -19.589639,9.627411 -19.850578,20.573826 -0.134639,5.638232 1.935013,10.992884 5.82649,15.072619 3.892668,4.082118 9.140083,6.403183 14.780698,6.537823 l 67.376396,0.006 c 9.63694,0 17.47589,-7.838952 17.47589,-17.475896 0,-8.454966 -5.88128,-15.496797 -13.97523,-17.124402 z"
   id="path1430"
   style="fill:#000000;fill-opacity:1;stroke-width:1.19151139"
   sodipodi:nodetypes="cccscsccccccscc" />
<text
   xml:space="preserve"
   style="font-style:normal;font-variant:normal;font-weight:normal;font-stretch:normal;font-size:206.10498047px;line-height:1.25;font-family:Metrosant;-inkscape-font-specification:Metrosant;letter-spacing:0px;word-spacing:0px;fill:#ffffff;fill-opacity:1;stroke:none;stroke-width:1.54578745"
   x="50.277882"
   y="74.749298"
   id="text856"><tspan
     sodipodi:role="line"
     id="tspan854"
     x="50.277882"
     y="74.749298"
     style="font-size:51.52624512px;fill:#ffffff;fill-opacity:1;stroke-width:1.54578745">C</tspan></text>
</svg>