<?xml version="1.0" encoding="UTF-8" standalone="no"?>
<!-- Created with Inkscape (http://www.inkscape.org/) -->

<svg
   xmlns:dc="http://purl.org/dc/elements/1.1/"
   xmlns:cc="http://creativecommons.org/ns#"
   xmlns:rdf="http://www.w3.org/1999/02/22-rdf-syntax-ns#"
   xmlns:svg="http://www.w3.org/2000/svg"
   xmlns="http://www.w3.org/2000/svg"
   xmlns:sodipodi="http://sodipodi.sourceforge.net/DTD/sodipodi-0.dtd"
   xmlns:inkscape="http://www.inkscape.org/namespaces/inkscape"
   width="300mm"
   height="50mm"
   viewBox="0 0 300 50"
   version="1.1"
   id="svg1190"
   inkscape:version="0.92.4 (5da689c313, 2019-01-14)"
   sodipodi:docname="PoziomePlain.svg"
   inkscape:export-filename="D:\Hobby\ŚPR\Grafika\LOGO\Poziome.png"
   inkscape:export-xdpi="150"
   inkscape:export-ydpi="150">
  <defs
     id="defs1184" />
  <sodipodi:namedview
     id="base"
     pagecolor="#ffffff"
     bordercolor="#666666"
     borderopacity="1.0"
     inkscape:pageopacity="0.0"
     inkscape:pageshadow="2"
     inkscape:zoom="0.64"
     inkscape:cx="291.34409"
     inkscape:cy="516.11249"
     inkscape:document-units="mm"
     inkscape:current-layer="layer1"
     showgrid="false"
     inkscape:window-width="1920"
     inkscape:window-height="1017"
     inkscape:window-x="-8"
     inkscape:window-y="-8"
     inkscape:window-maximized="1"
     inkscape:snap-nodes="false" />
  <metadata
     id="metadata1187">
    <rdf:RDF>
      <cc:Work
         rdf:about="">
        <dc:format>image/svg+xml</dc:format>
        <dc:type
           rdf:resource="http://purl.org/dc/dcmitype/StillImage" />
        <dc:title></dc:title>
      </cc:Work>
    </rdf:RDF>
  </metadata>
  <g
     inkscape:label="Layer 1"
     inkscape:groupmode="layer"
     id="layer1"
     transform="translate(0,-247)">
    <g
       id="g20336"
       transform="matrix(0.02339167,0,0,0.02339167,153.09349,269.29955)"
       inkscape:export-xdpi="150"
       inkscape:export-ydpi="150">
      <g
         style="fill:#004c97;fill-opacity:1"
         transform="matrix(23.858882,0,0,23.858882,-7032.1335,-1477.5942)"
         id="Layer1001">
        <path
           inkscape:connector-curvature="0"
           d="m 537.1432,76.0335 c -0.7207,0.8937 -2.7672,1.9313 -5.1881,1.9313 -5.131,0 -8.6186,-3.1419 -8.6186,-8.2725 0,-5.131 3.4876,-8.2728 8.6186,-8.2728 2.4786,0 4.3235,0.9225 5.1881,1.989 l 0.2886,-1.643 h 4.3233 V 77.619 h -4.3233 z m -4.5255,-10.8379 v 0 c -2.652,0 -4.6982,1.4125 -4.6982,4.4967 0,3.0266 2.1332,4.4677 4.6982,4.4677 2.9114,0 4.6985,-1.7008 4.6985,-4.4677 0,-2.6231 -1.7871,-4.4967 -4.6985,-4.4967 z"
           style="fill:#004c97;fill-opacity:1;fill-rule:evenodd"
           id="path4" />
        <path
           inkscape:connector-curvature="0"
           d="m 483.8523,76.0335 c -0.7207,0.8937 -2.7672,1.9313 -5.1887,1.9313 -5.1303,0 -8.6183,-3.1419 -8.6183,-8.2725 0,-5.131 3.488,-8.2728 8.6183,-8.2728 2.4793,0 4.3239,0.9225 5.1887,1.989 l 0.2886,-1.643 h 4.3233 V 77.619 h -4.3233 z m -4.5255,-10.8379 v 0 c -2.6519,0 -4.6982,1.4125 -4.6982,4.4967 0,3.0266 2.1332,4.4677 4.6982,4.4677 2.9114,0 4.6985,-1.7008 4.6985,-4.4677 0,-2.6231 -1.7871,-4.4967 -4.6985,-4.4967 z"
           style="fill:#004c97;fill-opacity:1;fill-rule:evenodd"
           id="path6" />
        <path
           inkscape:connector-curvature="0"
           d="m 427.2738,69.7211 c 0,-4.929 4.1794,-8.2439 9.2815,-8.2439 5.1017,0 9.339,3.3149 9.339,8.2439 0,4.9866 -4.2373,8.2726 -9.339,8.2726 -5.1021,0 -9.2815,-3.286 -9.2815,-8.2726 z m 4.583,0 v 0 c 0,2.9978 2.0179,4.5253 4.6985,4.5253 2.6517,0 4.6982,-1.5853 4.6982,-4.5253 0,-2.9113 -2.0465,-4.468 -4.6982,-4.468 -2.5942,0 -4.6985,1.5853 -4.6985,4.468 z"
           style="fill:#004c97;fill-opacity:1;fill-rule:evenodd"
           id="path8" />
        <path
           inkscape:connector-curvature="0"
           d="m 519.5914,68.2509 v 9.3681 h -4.6697 v -8.7916 c 0,-3.0552 -1.6718,-3.6318 -3.5456,-3.6318 -1.9888,0 -3.8048,0.8935 -3.6896,4.6408 v 7.7826 h -4.6693 V 61.7655 h 4.381 l 0.2883,1.4122 c 1.124,-1.0662 3.0266,-1.7869 5.2751,-1.7869 4.8135,0 6.6298,2.4501 6.6298,6.8601 z"
           style="fill:#004c97;fill-opacity:1;fill-rule:evenodd"
           id="path10" />
        <path
           inkscape:connector-curvature="0"
           d="m 493.0744,55.8564 h 4.6696 v 16.2282 c 0,0.8359 -0.1733,2.104 1.9599,1.989 v 3.7184 c -0.2591,0.0286 -0.6051,0.0575 -1.1531,0.0575 -3.2857,0 -5.4764,-0.6051 -5.4764,-3.9489 z"
           style="fill:#004c97;fill-opacity:1;fill-rule:evenodd"
           id="path12" />
        <path
           inkscape:connector-curvature="0"
           d="m 405.3414,84.4502 c -3.1996,0 -5.9955,-0.8071 -8.1861,-2.3923 l 2.277,-3.0555 c 1.3547,0.98 3.4299,1.816 5.8225,1.7582 4.0067,-0.0864 4.1508,-3.0841 4.1508,-4.5541 v -0.2594 c -1.2106,0.9223 -2.7961,1.4125 -4.7849,1.4125 -5.3325,0 -9.0221,-3.1996 -9.0221,-7.9267 0,-4.7563 3.6896,-7.9557 9.0221,-7.9557 1.9888,0 3.5743,0.4902 4.7849,1.4125 l 0.2883,-1.1242 h 4.3233 v 14.441 c 0,4.5541 -2.8825,8.2437 -8.6758,8.2437 z m 4.237,-15.0173 v 0 c 0,-2.8248 -2.0466,-4.295 -4.6983,-4.295 -2.5653,0 -4.6985,1.4989 -4.6985,4.295 0,2.8536 2.0468,4.2947 4.6985,4.2947 2.6517,0 4.6983,-1.4986 4.6983,-4.2947 z"
           style="fill:#004c97;fill-opacity:1;fill-rule:evenodd"
           id="path14" />
        <path
           inkscape:connector-curvature="0"
           d="m 374.4148,69.7497 c 0,-6.9177 6.111,-8.2436 9.3103,-8.2436 4.41,0 8.7913,2.3926 8.9358,7.869 0,1.2106 -0.0867,1.989 -0.0867,1.989 h -13.5187 c 0.2883,2.594 3.7473,2.8823 4.6696,2.8823 2.5942,0 3.8626,-1.0376 4.41,-1.8447 l 3.6032,1.9313 c -0.7207,1.1242 -2.9978,3.6893 -8.0132,3.6893 -3.3149,0 -9.3103,-1.3545 -9.3103,-8.2726 z m 4.7848,-1.4411 v 0 h 8.5608 c 0,-1.4413 -1.7293,-3.0266 -4.0642,-3.0266 -2.6805,0 -4.3235,1.4125 -4.4966,3.0266 z"
           style="fill:#004c97;fill-opacity:1;fill-rule:evenodd"
           id="path16" />
        <path
           inkscape:connector-curvature="0"
           d="m 466.2999,68.2509 v 9.3681 h -4.669 v -8.7916 c 0,-3.0552 -1.6722,-3.6318 -3.5457,-3.6318 -1.9885,0 -3.8048,0.8935 -3.6896,4.6408 V 77.619 H 449.726 V 61.7655 h 4.3816 l 0.288,1.4122 c 1.1245,-1.0662 3.0269,-1.7869 5.2751,-1.7869 4.8135,0 6.6292,2.4501 6.6292,6.8601 z"
           style="fill:#004c97;fill-opacity:1;fill-rule:evenodd"
           id="path18" />
        <path
           inkscape:connector-curvature="0"
           d="M 353.4325,77.619 V 56.5482 h 10.1174 c 4.9002,0 8.2148,2.3923 8.2148,7.3216 0,3.7184 -1.8735,5.7936 -4.6405,6.687 1.9599,2.2773 4.0642,4.8138 5.9089,7.0622 h -5.9089 c -1.8449,-2.1618 -3.5743,-4.2661 -5.4478,-6.572 h -3.3438 v 6.572 z m 10.1174,-10.5209 v 0 c 1.5278,0 3.3438,-0.6919 3.3438,-3.2283 0,-1.4414 -0.4327,-3.3727 -3.3438,-3.3727 h -5.2173 v 6.601 z"
           style="fill:#004c97;fill-opacity:1;fill-rule:evenodd"
           id="path20" />
        <path
           inkscape:connector-curvature="0"
           d="m 418.829,61.7655 v 0 h 4.6697 V 77.619 h -4.6697 z"
           style="fill:#004c97;fill-opacity:1;fill-rule:evenodd"
           id="path22" />
        <path
           inkscape:connector-curvature="0"
           d="m 421.1061,60.0936 c -1.6716,0 -2.5367,-1.0376 -2.5367,-2.3059 0,-1.2395 0.8651,-2.306 2.5367,-2.306 1.7294,0 2.5942,1.0665 2.5942,2.306 0,1.2683 -0.8648,2.3059 -2.5942,2.3059 z"
           style="fill:#004c97;fill-opacity:1;fill-rule:evenodd"
           id="path24" />
        <path
           inkscape:connector-curvature="0"
           d="m 338.6299,76.0018 c -0.707,0.8769 -2.7155,1.8951 -5.0915,1.8951 -5.0346,0 -8.4568,-3.0829 -8.4568,-8.1175 0,-5.035 3.4222,-8.1179 8.4568,-8.1179 2.4325,0 4.2425,0.9048 5.0915,1.9516 l 0.2829,-1.6121 h 4.2426 v 15.5564 h -4.2426 z m -4.4411,-10.6352 v 0 c -2.6017,0 -4.6102,1.3863 -4.6102,4.4128 0,2.9695 2.0933,4.3841 4.6102,4.3841 2.8569,0 4.6107,-1.669 4.6107,-4.3841 0,-2.5742 -1.7538,-4.4128 -4.6107,-4.4128 z"
           style="fill:#004c97;fill-opacity:1;fill-rule:evenodd"
           id="path26" />
        <path
           inkscape:connector-curvature="0"
           d="m 281.6304,76.0018 c -0.707,0.8769 -2.7152,1.8951 -5.0915,1.8951 -5.0343,0 -8.4574,-3.0829 -8.4574,-8.1175 0,-5.035 3.4231,-8.1179 8.4574,-8.1179 2.4325,0 4.2429,0.9048 5.0915,1.9516 l 0.283,-1.6121 h 4.2428 v 15.5564 h -4.2428 z m -4.4407,-10.6352 v 0 c -2.6021,0 -4.6103,1.3863 -4.6103,4.4128 0,2.9695 2.093,4.3841 4.6103,4.3841 2.8565,0 4.6106,-1.669 4.6106,-4.3841 0,-2.5742 -1.7541,-4.4128 -4.6106,-4.4128 z"
           style="fill:#004c97;fill-opacity:1;fill-rule:evenodd"
           id="path28" />
        <path
           inkscape:connector-curvature="0"
           d="m 266.2979,64.2919 c 0,4.6388 -3.0547,7.2409 -9.0513,7.2409 h -4.2143 v 6.0246 h -4.837 V 56.8813 h 9.0796 c 5.6288,0 9.023,2.7434 9.023,7.4106 z m -4.865,0 v 0 c 0,-2.3195 -1.386,-3.5356 -3.9881,-3.5356 h -4.4125 v 6.9015 h 4.9213 c 2.4045,0 3.4793,-1.2161 3.4793,-3.3659 z"
           style="fill:#004c97;fill-opacity:1;fill-rule:evenodd"
           id="path30" />
        <path
           inkscape:connector-curvature="0"
           d="m 316.7926,62.001 v 0 h 4.5826 v 15.5564 h -4.5826 z"
           style="fill:#004c97;fill-opacity:1;fill-rule:evenodd"
           id="path32" />
        <path
           inkscape:connector-curvature="0"
           d="m 319.0275,60.3603 c -1.6407,0 -2.4893,-1.0183 -2.4893,-2.2629 0,-1.2161 0.8486,-2.2626 2.4893,-2.2626 1.697,0 2.5456,1.0465 2.5456,2.2626 0,1.2446 -0.8486,2.2629 -2.5456,2.2629 z"
           style="fill:#004c97;fill-opacity:1;fill-rule:evenodd"
           id="path34" />
        <path
           inkscape:connector-curvature="0"
           d="m 309.2677,71.8441 c 0,0.8486 -0.1696,2.2912 2.0933,2.2912 h 1.1595 v 3.5355 c -0.5653,0.0565 -1.4142,0.1131 -2.0647,0.1131 -3.5358,0 -5.7136,-0.8769 -5.7136,-4.1578 v -8.1744 h -2.0365 v -3.7054 h 2.0365 l 0.5656,-4.158 h 3.9599 v 4.158 h 3.3659 v 3.7054 h -3.3659 z"
           style="fill:#004c97;fill-opacity:1;fill-rule:evenodd"
           id="path36" />
        <path
           inkscape:connector-curvature="0"
           d="m 295.1525,70.6842 v 6.8732 h -4.554 V 62.001 h 4.2711 l 0.2829,2.0647 c 1.7256,-2.0933 4.5541,-2.3759 5.7419,-2.3477 v 4.1298 c -1.103,-0.0848 -5.7419,0.1127 -5.7419,4.8364 z"
           style="fill:#004c97;fill-opacity:1;fill-rule:evenodd"
           id="path38" />
        <path
           inkscape:connector-curvature="0"
           d="m 229.7227,76.0018 c -0.707,0.8769 -2.7152,1.8951 -5.0912,1.8951 -5.0343,0 -8.4571,-3.0829 -8.4571,-8.1175 0,-5.035 3.4228,-8.1179 8.4571,-8.1179 2.4325,0 4.2429,0.9048 5.0912,1.9516 l 0.283,-1.6121 h 4.2428 v 15.5564 h -4.2428 z m -4.4404,-10.6352 v 0 c -2.6024,0 -4.6106,1.3863 -4.6106,4.4128 0,2.9695 2.0933,4.3841 4.6106,4.3841 2.8565,0 4.6103,-1.669 4.6103,-4.3841 0,-2.5742 -1.7538,-4.4128 -4.6103,-4.4128 z"
           style="fill:#004c97;fill-opacity:1;fill-rule:evenodd"
           id="path40" />
        <path
           inkscape:connector-curvature="0"
           d="m 179.0025,82.1398 c -0.0566,0.0282 -1.1313,0.4525 -2.093,0.5942 -0.3113,0.0562 -0.707,0.0562 -0.99,0.0562 -1.0747,0 -2.2629,-0.3678 -2.9981,-0.8766 -0.9335,-0.7073 -1.3295,-1.5273 -1.3295,-2.5459 0,-0.8483 0.1979,-1.5838 0.6225,-2.1777 l -0.2265,-1.1882 c -0.7069,0.8769 -2.7154,1.8951 -5.0914,1.8951 -5.0346,0 -8.4571,-3.0829 -8.4571,-8.1175 0,-5.035 3.4225,-8.1179 8.4571,-8.1179 2.4328,0 4.2428,0.9048 5.0914,1.9516 l 0.283,-1.6121 h 4.2425 v 15.5564 c -0.9334,0 -1.8668,0.4526 -1.81,1.3298 0.1128,1.6401 2.5173,0.7918 2.9417,0.5653 z m -6.845,-12.3604 v 0 c 0,-2.5742 -1.7534,-4.4128 -4.6103,-4.4128 -2.6021,0 -4.6106,1.3863 -4.6106,4.4128 0,2.9695 2.0933,4.3841 4.6106,4.3841 2.8569,0 4.6103,-1.669 4.6103,-4.3841 z"
           style="fill:#004c97;fill-opacity:1;fill-rule:evenodd"
           id="path42" />
        <path
           inkscape:connector-curvature="0"
           d="m 203.1331,56.174 v 12.4458 l 5.7137,-6.534 h 5.572 l -6.7316,7.241 7.0146,8.2306 h -5.5441 l -4.3838,-5.0911 -1.6408,1.7538 v 3.3373 h -4.5823 V 56.174 Z"
           style="fill:#004c97;fill-opacity:1;fill-rule:evenodd"
           id="path44" />
        <path
           inkscape:connector-curvature="0"
           d="m 180.0791,75.4927 2.3763,-2.9413 c 1.3292,0.8197 3.4222,1.6687 5.4586,1.6687 1.3864,0 2.4043,-0.3113 2.4043,-1.386 0,-1.3295 -2.3474,-1.1599 -3.2526,-1.3013 -2.2908,-0.3677 -6.6471,-0.7069 -6.6471,-4.8932 0,-4.8368 5.3176,-4.9216 6.9301,-4.9216 2.6586,0 4.8085,0.707 6.986,2.2347 l -2.3757,2.885 c -1.2447,-0.679 -2.8848,-1.4425 -4.752,-1.4425 -0.9051,0 -2.206,0.1131 -2.206,1.1596 0,1.3294 2.2908,1.3294 4.0164,1.6121 1.9799,0.3113 5.8553,0.3961 5.8553,4.6954 0,3.5073 -2.5177,5.0632 -6.9018,5.0632 -3.6207,0 -6.0529,-1.0751 -7.8918,-2.4328 z"
           style="fill:#004c97;fill-opacity:1;fill-rule:evenodd"
           id="path46" />
        <path
           inkscape:connector-curvature="0"
           d="m 149.5005,56.2026 h 4.5824 v 15.9245 c 0,0.82 -0.1696,2.0644 1.9234,1.9516 v 3.6486 c -0.2547,0.0283 -0.5939,0.0566 -1.1316,0.0566 -3.2243,0 -5.3742,-0.5939 -5.3742,-3.8751 z"
           style="fill:#004c97;fill-opacity:1;fill-rule:evenodd"
           id="path48" />
        <path
           inkscape:connector-curvature="0"
           d="m 141.1264,52.0728 v 0 l -4.5541,3.055 h -3.6486 l 4.0449,-4.6389 z"
           style="fill:#004c97;fill-opacity:1;fill-rule:evenodd"
           id="path50" />
        <path
           inkscape:connector-curvature="0"
           d="m 137.1665,73.9371 c 2.6587,0 4.1577,-0.5374 4.1577,-2.2909 0,-1.8668 -1.9516,-2.065 -5.0063,-2.4893 -2.8286,-0.3961 -8.8814,-0.6505 -8.8814,-6.3355 0,-4.9219 4.9212,-6.2514 8.8814,-6.2514 3.9033,0 6.3641,1.1031 8.8248,2.772 l -2.6024,3.2812 c -1.923,-1.273 -4.2425,-2.0085 -6.4206,-2.0085 -1.414,0 -3.8465,0 -3.8465,2.0367 0,2.0082 2.404,1.8386 4.4407,2.2064 3.9882,0.707 9.3905,0.9052 9.3905,6.675 0,4.5824 -3.592,6.4207 -8.8814,6.4207 -4.8367,0 -8.0045,-1.5839 -10.0695,-3.2246 l 2.4608,-3.2809 c 1.6407,1.2447 4.9784,2.4891 7.5522,2.4891 z"
           style="fill:#004c97;fill-opacity:1;fill-rule:evenodd"
           id="path52" />
      </g>
      <path
         inkscape:connector-curvature="0"
         d="m -4707.7845,128.86489 c 0,94.60523 -20.7215,184.55083 -58.2276,265.82611 -63.2833,124.72231 -165.2776,233.13946 -289.6755,307.1855 -98.864,53.72781 -213.0646,84.32444 -334.7305,84.32444 -84.167,0 -164.7194,-14.69707 -239.1662,-41.51922 l 52.4465,-61.51774 -178.2091,1.36472 h -2.2499 c -162.3883,-102.63375 -261.9729,-250.08403 -302.2849,-418.97867 h 127.2084 l -139.2571,-159.57297 c 1.8467,-39.515081 6.5039,-78.541054 14.375,-116.770141 0,-0.159854 0,-0.240974 0.081,-0.319709 16.8658,-80.955572 48.4264,-157.8098 99.3436,-225.27079 2.0089,-2.65072 4.0155,-5.29906 6.1055,-7.95217 l 66.5734,75.09106 0.3245,-2.97043 0.241,0.39844 v -2.96804 l 8.3506,-157.89092 v -0.0787 c 0.9639,-0.88516 1.8491,-1.76794 2.8082,-2.65311 8.1144,-7.78753 16.3051,-15.41999 24.7369,-22.72797 98.4608,-86.09239 223.1831,-144.79717 361.2354,-163.75066 -82.3991,39.67255 -259.0789,188.00799 -285.1805,402.43253 -26.5835,218.280143 91.0742,437.44545 312.8067,489.7298 104.7238,24.65577 224.9463,-12.85039 294.2516,-118.45458 5.6259,-8.51523 10.7651,-17.26906 15.3412,-26.10161 21.7641,-35.65949 34.2924,-77.58193 34.2924,-122.3913 0,-8.114402 -0.3984,-16.145302 -1.2025,-24.095081 0,-0.159855 0,-0.243361 -0.081,-0.322095 -3.6958,-73.2396102 -37.7448,-140.621865 -98.8641,-180.776364 -57.9031,-37.98573 -128.492,-43.92897 -194.1039,-22.72797 -0.1646,0.0787 -0.3245,0.15985 -0.4843,0.15985 -48.5051,12.61181 -90.9119,40.316743 -121.9881,77.741786 -19.5977,-64.409436 -24.014,-165.277636 69.7872,-275.462726 27.8672,-32.68666 58.9458,-58.62604 87.0539,-79.34748 94.2856,-69.3864 171.543,-90.5874 194.2686,-95.72899 4.4163,-0.9639 6.8284,-1.36712 6.8284,-1.36712 l 26.3426,12.5283 69.866,33.24974 -135.6426,50.35417 219.4111,-4.65725 c 0.3197,0.24097 0.6394,0.40083 0.878,0.56068 0.8852,0.64419 1.6892,1.20726 2.4932,1.76794 2.2476,1.52459 4.4163,3.05155 6.5851,4.73599 1.5222,1.12853 3.0516,2.16877 4.5761,3.37365 0.8041,0.56307 1.6081,1.20726 2.4074,1.85145 25.5409,19.35194 76.618,61.35311 128.3369,122.3889 89.0652,110.98914 141.9914,250.246274 141.9914,401.30879 z"
         style="fill:#004c97;fill-opacity:1;fill-rule:evenodd;stroke-width:23.8588829"
         id="path55" />
      <path
         inkscape:connector-curvature="0"
         d="m -4444.893,252.34176 h 109.6029 c -39.6415,166.14371 -153.7466,311.20094 -313.5701,412.19797 l -80.1492,-1.57946 28.4279,31.82298 c -72.729,39.40533 -256.0058,90.57309 -263.5071,90.57309 34.5071,-24.47921 39.4817,-24.95401 78.9658,-55.5912 204.1247,-152.00732 341.7594,-377.21608 341.7594,-616.55884 0,-257.82146 -147.028,-482.19993 -379.3443,-635.15684 0,0 14.4203,-3.03724 27.8004,0 156.5333,35.53542 254.1018,96.14175 345.2261,174.94764 l 9.3192,174.59214 77.8611,-85.75598 c 89.3086,108.02347 141.5834,237.290896 142.5306,376.26888 -14.134,17.68898 -124.9227,134.23962 -124.9227,134.23962 z"
         style="fill:#ffcd00;fill-opacity:1;fill-rule:evenodd;stroke-width:23.8588829"
         id="path57" />
    </g>
  </g>
</svg>
